{
  "accessors": [
    {
      "bufferView": 3,
      "componentType": 5126,
      "count": 3912,
      "max": [
        13.630200386047363,
        26.12980079650879,
        5.091400146484375
      ],
      "min": [
        -13.207300186157227,
        -0.0357000008225441,
        -5.6442999839782715
      ],
      "type": "VEC3"
    },
    {
      "bufferView": 3,
      "byteOffset": 46944,
      "componentType": 5126,
      "count": 3912,
      "max": [
        1.0,
        1.0,
        1.0
      ],
      "min": [
        -1.0,
        -1.0,
        -1.0
      ],
      "type": "VEC3"
    },
    {
      "bufferView": 2,
      "componentType": 5126,
      "count": 3912,
      "max": [
        0.9851400256156921,
        0.8891800045967102
      ],
      "min": [
        0.006819999776780605,
        0.007780000101774931
      ],
      "type": "VEC2"
    },
    {
      "bufferView": 1,
      "componentType": 5125,
      "count": 18333,
      "type": "SCALAR"
    },
    {
      "bufferView": 5,
      "componentType": 5126,
      "count": 38,
      "max": [
        1.0,
        0.999970018863678,
        0.6557899713516235,
        0.0,
        0.9999300241470337,
        1.0,
        0.9925600290298462,
        0.0,
        0.9935600161552429,
        0.9991499781608582,
        1.0,
        0.0,
        19.292579650878906,
        9.34414005279541,
        18.147869110107422,
        1.0
      ],
      "min": [
        -1.0,
        -0.9997699856758118,
        -0.9975299835205078,
        0.0,
        -0.9998000264167786,
        -0.9996299743652344,
        -0.9909200072288513,
        0.0,
        -0.9913600087165833,
        -0.19684000313282013,
        -0.3622100055217743,
        0.0,
        -19.22854995727539,
        -24.00758934020996,
        -10.942070007324219,
        1.0
      ],
      "type": "MAT4"
    },
    {
      "bufferView": 0,
      "componentType": 5123,
      "count": 3912,
      "type": "VEC4"
    },
    {
      "bufferView": 4,
      "componentType": 5126,
      "count": 3912,
      "max": [
        1.0,
        0.5,
        0.3333333432674408,
        0.25
      ],
      "min": [
        0.0,
        0.0,
        0.0,
        0.0
      ],
      "type": "VEC4"
    }
  ],
  "asset": {
    "extras": {
      "author": "Dandelion (https://sketchfab.com/dandelion4days)",
      "license": "CC-BY-4.0 (http://creativecommons.org/licenses/by/4.0/)",
      "source": "https://sketchfab.com/3d-models/pirate-3fede8ec1ee24eb2993ce5b509e1b8ec",
      "title": "Pirate"
    },
    "generator": "Sketchfab-12.67.0",
    "version": "2.0"
  },
  "bufferViews": [
    {
      "buffer": 0,
      "byteLength": 31296,
      "byteStride": 8,
      "name": "shortBufferViews",
      "target": 34962
    },
    {
      "buffer": 0,
      "byteLength": 73332,
      "byteOffset": 31296,
      "name": "floatBufferViews",
      "target": 34963
    },
    {
      "buffer": 0,
      "byteLength": 31296,
      "byteOffset": 104628,
      "byteStride": 8,
      "name": "floatBufferViews",
      "target": 34962
    },
    {
      "buffer": 0,
      "byteLength": 93888,
      "byteOffset": 135924,
      "byteStride": 12,
      "name": "floatBufferViews",
      "target": 34962
    },
    {
      "buffer": 0,
      "byteLength": 62592,
      "byteOffset": 229812,
      "byteStride": 16,
      "name": "floatBufferViews",
      "target": 34962
    },
    {
      "buffer": 0,
      "byteLength": 2432,
      "byteOffset": 292404,
      "name": "floatBufferViews"
    }
  ],
  "buffers": [
    {
      "byteLength": 294836,
      "uri": "scene.bin"
    }
  ],
  "extensionsUsed": [
    "KHR_materials_unlit"
  ],
  "images": [
    {
      "uri": "textures/Body_baseColor.png"
    }
  ],
  "materials": [
    {
      "doubleSided": true,
      "extensions": {
        "KHR_materials_unlit": {}
      },
      "name": "Body",
      "pbrMetallicRoughness": {
        "baseColorTexture": {
          "index": 0
        },
        "metallicFactor": 0.0
      }
    }
  ],
  "meshes": [
    {
      "name": "Pirate Body",
      "primitives": [
        {
          "attributes": {
            "JOINTS_0": 5,
            "NORMAL": 1,
            "POSITION": 0,
            "TEXCOORD_0": 2,
            "WEIGHTS_0": 6
          },
          "indices": 3,
          "material": 0,
          "mode": 4
        }
      ]
    }
  ],
  "nodes": [
    {
      "children": [
        1
      ],
      "matrix": [
        1.0,
        0.0,
        0.0,
        0.0,
        0.0,
        2.220446049250313e-16,
        -1.0,
        0.0,
        0.0,
        1.0,
        2.220446049250313e-16,
        0.0,
        0.0,
        0.0,
        0.0,
        1.0
      ],
      "name": "Sketchfab_model"
    },
    {
      "children": [
        2
      ],
      "name": "Root"
    },
    {
      "children": [
        3,
        42,
        41
      ],
      "matrix": [
        0.4,
        0.0,
        0.0,
        0.0,
        0.0,
        -0.0,
        0.4,
        0.0,
        0.0,
        -0.4,
        -0.0,
        0.0,
        0.0,
        0.0,
        0.0,
        1.0
      ],
      "name": "Armature"
    },
    {
      "children": [
        4
      ],
      "name": "Armature_rootJoint"
    },
    {
      "children": [
        5,
        33,
        37
      ],
      "name": "Hips_Armature",
      "rotation": [
        -9.999999747378752e-06,
        -1.4999999621068127e-05,
        0.00011999999696854502,
        1.0
      ],
      "scale": [
        1.0,
        1.0,
        1.0
      ],
      "translation": [
        -0.0006799999973736703,
        9.579879760742188,
        0.07114999741315842
      ]
    },
    {
      "children": [
        6
      ],
      "name": "Spine_Armature",
      "rotation": [
        -0.04330061748623848,
        2.5084804292418994e-05,
        -0.00011760630150092766,
        0.9990620613098145
      ],
      "scale": [
        1.0000028610229492,
        0.9999971389770508,
        0.9999998807907104
      ],
      "translation": [
        0.0,
        1.5921800136566162,
        -0.14643000066280365
      ]
    },
    {
      "children": [
        7,
        12,
        20
      ],
      "name": "Chest_Armature",
      "rotation": [
        -0.000549999822396785,
        0.0,
        0.0,
        0.9999999403953552
      ],
      "scale": [
        1.0,
        1.0000005960464478,
        1.0000005960464478
      ],
      "translation": [
        0.0,
        2.0534698963165283,
        -0.1890999972820282
      ]
    },
    {
      "children": [
        8
      ],
      "name": "Neck_Armature",
      "rotation": [
        0.04385733604431152,
        0.0,
        0.0,
        0.9990378022193909
      ],
      "scale": [
        1.0,
        0.9999969005584717,
        0.9999969005584717
      ],
      "translation": [
        0.0,
        2.52485990524292,
        0.001610000035725534
      ]
    },
    {
      "children": [
        9,
        10,
        11
      ],
      "name": "Head_Armature",
      "rotation": [
        0.0023001956287771463,
        0.1548098623752594,
        0.010547680780291557,
        0.9878852963447571
      ],
      "scale": [
        1.0000070333480835,
        1.0000015497207642,
        1.0000022649765015
      ],
      "translation": [
        0.0,
        1.495959997177124,
        0.05959000065922737
      ]
    },
    {
      "name": "mixamorig:HeadTop_End_Armature",
      "rotation": [
        0.0,
        0.0,
        0.0,
        1.0
      ],
      "scale": [
        1.0,
        1.0,
        1.0
      ],
      "translation": [
        0.0,
        6.834270000457764,
        0.27226001024246216
      ]
    },
    {
      "name": "Reye_Armature",
      "rotation": [
        0.006880481727421284,
        0.006360315717756748,
        0.6788178086280823,
        0.7342469692230225
      ],
      "scale": [
        1.0000033378601074,
        0.9999979138374329,
        0.999994695186615
      ],
      "translation": [
        0.0,
        2.0978899002075195,
        0.0
      ]
    },
    {
      "name": "Leye_Armature",
      "rotation": [
        -0.006703999824821949,
        0.006573162041604519,
        -0.7000221014022827,
        0.7140594720840454
      ],
      "scale": [
        0.9999967813491821,
        1.0000051259994507,
        0.9999948143959045
      ],
      "translation": [
        0.0,
        2.1272599697113037,
        0.0
      ]
    },
    {
      "children": [
        13
      ],
      "name": "L_Shoulder_Armature",
      "rotation": [
        -0.5599797368049622,
        -0.4023764133453369,
        0.5986928343772888,
        -0.40753260254859924
      ],
      "scale": [
        0.9999947547912598,
        0.9999999403953552,
        1.0000020265579224
      ],
      "translation": [
        1.1102399826049805,
        2.1926400661468506,
        -0.022989999502897263
      ]
    },
    {
      "children": [
        14
      ],
      "name": "L_Arm_Armature",
      "rotation": [
        -0.22724613547325134,
        -0.2713826298713684,
        0.46233418583869934,
        0.8129931092262268
      ],
      "scale": [
        1.0000052452087402,
        0.9999977946281433,
        0.9999978542327881
      ],
      "translation": [
        0.0,
        1.899649977684021,
        0.0
      ]
    },
    {
      "children": [
        15
      ],
      "name": "L_Forearm_Armature",
      "rotation": [
        -0.0023850025609135628,
        -0.0003049988008569926,
        -0.000389998487662524,
        0.9999970197677612
      ],
      "scale": [
        0.9999985098838806,
        1.0000019073486328,
        1.0000033378601074
      ],
      "translation": [
        0.0,
        2.871220111846924,
        0.0
      ]
    },
    {
      "children": [
        16
      ],
      "name": "L_Hand_Armature",
      "rotation": [
        -5.4999880376271904e-05,
        -0.0001749996154103428,
        0.0011899974197149277,
        0.9999992847442627
      ],
      "scale": [
        1.0000028610229492,
        1.0000028610229492,
        1.0
      ],
      "translation": [
        0.0,
        2.825200080871582,
        0.0
      ]
    },
    {
      "children": [
        17
      ],
      "name": "mixamorig:LeftHandIndex1_Armature",
      "rotation": [
        0.0,
        -3.9999998989515007e-05,
        0.0,
        1.0
      ],
      "scale": [
        1.0,
        1.0,
        1.0
      ],
      "translation": [
        0.0,
        1.7007800340652466,
        0.0
      ]
    },
    {
      "children": [
        18
      ],
      "name": "mixamorig:LeftHandIndex2_Armature",
      "rotation": [
        -0.6084246039390564,
        0.0,
        0.07914115488529205,
        0.789655864238739
      ],
      "scale": [
        0.9999946355819702,
        0.9999961853027344,
        1.0000015497207642
      ],
      "translation": [
        0.0,
        1.928689956665039,
        0.0
      ]
    },
    {
      "children": [
        19
      ],
      "name": "mixamorig:LeftHandIndex3_Armature",
      "rotation": [
        -0.8022812008857727,
        -0.008171243593096733,
        0.10645889490842819,
        0.5873198509216309
      ],
      "scale": [
        1.0000008344650269,
        1.0000022649765015,
        0.9999944567680359
      ],
      "translation": [
        0.31470999121665955,
        0.622219979763031,
        2.419379949569702
      ]
    },
    {
      "name": "mixamorig:LeftHandIndex4_Armature",
      "rotation": [
        0.0,
        0.0,
        0.0,
        1.0
      ],
      "scale": [
        1.0,
        1.0,
        1.0
      ],
      "translation": [
        0.0027099999133497477,
        -1.971369981765747,
        -0.13099999725818634
      ]
    },
    {
      "children": [
        21
      ],
      "name": "R_Shoulder_Armature",
      "rotation": [
        0.5487179756164551,
        -0.4169263541698456,
        0.5900956392288208,
        0.4205569326877594
      ],
      "scale": [
        0.9999945759773254,
        1.000002145767212,
        1.0000040531158447
      ],
      "translation": [
        -1.1102399826049805,
        2.1934499740600586,
        -0.032180000096559525
      ]
    },
    {
      "children": [
        22
      ],
      "name": "R_Arm_Armature",
      "rotation": [
        0.3323894143104553,
        -0.18040946125984192,
        -0.09608906507492065,
        0.9207261204719543
      ],
      "scale": [
        1.000006079673767,
        1.0000007152557373,
        0.9999974966049194
      ],
      "translation": [
        0.0,
        2.178339958190918,
        0.0
      ]
    },
    {
      "children": [
        23
      ],
      "name": "R_Forearm_Armature",
      "rotation": [
        0.010033822618424892,
        0.025714868679642677,
        -0.16793155670166016,
        0.9854122400283813
      ],
      "scale": [
        1.0000059604644775,
        1.0000017881393433,
        1.000004529953003
      ],
      "translation": [
        0.0,
        3.2090699672698975,
        0.0
      ]
    },
    {
      "children": [
        24,
        27,
        30
      ],
      "name": "R_Hand_Armature",
      "rotation": [
        0.13264065980911255,
        -0.009702702052891254,
        0.11431614309549332,
        0.9845019578933716
      ],
      "scale": [
        1.000008463859558,
        1.000000238418579,
        0.9999950528144836
      ],
      "translation": [
        0.0,
        2.1925599575042725,
        0.0
      ]
    },
    {
      "children": [
        25
      ],
      "name": "R_Index1_Armature",
      "rotation": [
        0.21044254302978516,
        0.013270010240375996,
        0.03130737692117691,
        0.9770147800445557
      ],
      "scale": [
        1.000003695487976,
        1.000002145767212,
        0.9999929070472717
      ],
      "translation": [
        0.5348799824714661,
        2.017270088195801,
        0.01664000004529953
      ]
    },
    {
      "children": [
        26
      ],
      "name": "R_Index2_Armature",
      "rotation": [
        -0.05360138788819313,
        -0.13635164499282837,
        -0.13489241898059845,
        0.9799689650535583
      ],
      "scale": [
        0.9999935030937195,
        1.0000005960464478,
        0.9999988675117493
      ],
      "translation": [
        0.0,
        0.9829300045967102,
        0.0
      ]
    },
    {
      "name": "R_Index3_Armature",
      "rotation": [
        0.13456282019615173,
        0.24390126764774323,
        0.025013940408825874,
        0.9600934982299805
      ],
      "scale": [
        0.9999961256980896,
        0.9999929070472717,
        1.0000028610229492
      ],
      "translation": [
        0.0,
        0.8351100087165833,
        0.0
      ]
    },
    {
      "children": [
        28
      ],
      "name": "R_Thumb1_Armature",
      "rotation": [
        0.2683165669441223,
        0.6990926861763,
        0.5476999878883362,
        -0.37322965264320374
      ],
      "scale": [
        1.0000025033950806,
        0.9999973773956299,
        0.9999959468841553
      ],
      "translation": [
        0.6390900015830994,
        1.3505500555038452,
        0.09429000318050385
      ]
    },
    {
      "children": [
        29
      ],
      "name": "R_Thumb2_Armature",
      "rotation": [
        0.2761371433734894,
        -0.04367075487971306,
        -0.41997450590133667,
        0.8634017705917358
      ],
      "scale": [
        0.9999995231628418,
        1.0000066757202148,
        0.9999952912330627
      ],
      "translation": [
        0.0,
        0.682699978351593,
        0.0
      ]
    },
    {
      "name": "R_Thumb3_Armature",
      "rotation": [
        0.27969062328338623,
        0.8293514251708984,
        0.09450153261423111,
        0.4743615388870239
      ],
      "scale": [
        0.9999973773956299,
        1.0000053644180298,
        1.0000033378601074
      ],
      "translation": [
        0.0,
        0.7126299738883972,
        0.0
      ]
    },
    {
      "children": [
        31
      ],
      "name": "R_Pinky1_Armature",
      "rotation": [
        0.16797420382499695,
        0.6869736313819885,
        0.10497478395700455,
        0.6991653442382813
      ],
      "scale": [
        1.000006079673767,
        0.9999971985816956,
        0.9999939799308777
      ],
      "translation": [
        -0.5435600280761719,
        1.968400001525879,
        -0.1019200012087822
      ]
    },
    {
      "children": [
        32
      ],
      "name": "R_Pinky2_Armature",
      "rotation": [
        -0.12509594857692719,
        -0.00012134497228544205,
        -0.087439626455307,
        0.9882841110229492
      ],
      "scale": [
        1.000003695487976,
        0.9999992251396179,
        0.9999956488609314
      ],
      "translation": [
        0.0,
        0.9647799730300903,
        0.0
      ]
    },
    {
      "name": "R_Pinky3_Armature",
      "rotation": [
        -0.022004129365086555,
        -0.020934030413627625,
        0.2335609346628189,
        0.9718677401542664
      ],
      "scale": [
        0.9999966621398926,
        1.000000238418579,
        1.0000052452087402
      ],
      "translation": [
        0.0,
        1.0480600595474243,
        0.0
      ]
    },
    {
      "children": [
        34
      ],
      "name": "L_Upper_Leg_Armature",
      "rotation": [
        0.025925448164343834,
        -0.0075567797757685184,
        0.993803858757019,
        -0.10781765729188919
      ],
      "scale": [
        1.0000017881393433,
        1.0000052452087402,
        1.0000085830688477
      ],
      "translation": [
        1.3447200059890747,
        -0.17520000040531158,
        -5.999999848427251e-05
      ]
    },
    {
      "children": [
        35
      ],
      "name": "L_leg_Armature",
      "rotation": [
        -0.04770173132419586,
        0.012225757353007793,
        0.012558785267174244,
        0.9987078309059143
      ],
      "scale": [
        1.0000050067901611,
        0.9999942183494568,
        1.000001311302185
      ],
      "translation": [
        0.0,
        4.75521993637085,
        0.0
      ]
    },
    {
      "children": [
        36
      ],
      "name": "L_Foot_Armature",
      "rotation": [
        0.2086668461561203,
        -0.11208581924438477,
        -0.05073876678943634,
        0.9702167510986328
      ],
      "scale": [
        0.9999946355819702,
        1.0000035762786865,
        1.0000001192092896
      ],
      "translation": [
        0.0,
        3.5697999000549316,
        0.0
      ]
    },
    {
      "name": "mixamorig:LeftToeBase_Armature",
      "rotation": [
        0.6169876456260681,
        0.15614384412765503,
        -0.1266157180070877,
        0.7608638405799866
      ],
      "scale": [
        0.9999936819076538,
        1.0000044107437134,
        1.000002145767212
      ],
      "translation": [
        0.0,
        0.9330999851226807,
        0.0
      ]
    },
    {
      "children": [
        38
      ],
      "name": "R_Upper_Leg_Armature",
      "rotation": [
        -0.031761109828948975,
        0.04087070748209953,
        0.989122748374939,
        0.13768447935581207
      ],
      "scale": [
        1.0000014305114746,
        1.0000044107437134,
        1.0002005100250244
      ],
      "translation": [
        -1.815559983253479,
        -0.17520000040531158,
        -0.2569600045681
      ]
    },
    {
      "children": [
        39
      ],
      "name": "R_Leg_Armature",
      "rotation": [
        -0.1002865731716156,
        -0.0024052767548710108,
        0.05273490399122238,
        0.9935572743415833
      ],
      "scale": [
        1.0000059604644775,
        0.9999927282333374,
        0.9999977350234985
      ],
      "translation": [
        0.0,
        4.737549781799316,
        0.0
      ]
    },
    {
      "children": [
        40
      ],
      "name": "R_Foot_Armature",
      "rotation": [
        0.6210910677909851,
        0.07088541984558105,
        0.1730375587940216,
        0.7611040472984314
      ],
      "scale": [
        1.000000238418579,
        0.9999972581863403,
        1.000007152557373
      ],
      "translation": [
        0.0,
        3.6175899505615234,
        0.0
      ]
    },
    {
      "name": "mixamorig:RightToeBase_Armature",
      "rotation": [
        0.1554839313030243,
        0.005424183327704668,
        0.03445800766348839,
        0.9872223734855652
      ],
      "scale": [
        1.0000070333480835,
        1.0000052452087402,
        0.9999959468841553
      ],
      "translation": [
        0.0,
        2.982189893722534,
        0.0
      ]
    },
    {
      "name": "Pirate Body"
    },
    {
      "mesh": 0,
      "name": "Pirate Body_0",
      "skin": 0
    }
  ],
  "samplers": [
    {
      "magFilter": 9729,
      "minFilter": 9987,
      "wrapS": 10497,
      "wrapT": 10497
    }
  ],
  "scene": 0,
  "scenes": [
    {
      "name": "Sketchfab_Scene",
      "nodes": [
        0
      ]
    }
  ],
  "skins": [
    {
      "inverseBindMatrices": 4,
      "joints": [
        3,
        4,
        5,
        6,
        7,
        8,
        9,
        10,
        11,
        12,
        13,
        14,
        15,
        16,
        17,
        18,
        19,
        20,
        21,
        22,
        23,
        24,
        25,
        26,
        27,
        28,
        29,
        30,
        31,
        32,
        33,
        34,
        35,
        36,
        37,
        38,
        39,
        40
      ],
      "skeleton": 3
    }
  ],
  "textures": [
    {
      "sampler": 0,
      "source": 0
    }
  ]
}
